<svg width="383" height="352" viewBox="0 0 383 352" fill="none" xmlns="http://www.w3.org/2000/svg">
<path d="M63.4581 39.0312V167H37.1788V39.0312H63.4581ZM162.335 124.549H188.614C188.087 133.162 185.714 140.809 181.495 147.488C177.335 154.168 171.505 159.383 164.005 163.133C156.564 166.883 147.599 168.758 137.11 168.758C128.907 168.758 121.554 167.352 115.05 164.539C108.546 161.668 102.98 157.566 98.3506 152.234C93.7803 146.902 90.294 140.457 87.8917 132.898C85.4893 125.34 84.2881 116.873 84.2881 107.498V98.6211C84.2881 89.2461 85.5186 80.7793 87.9796 73.2207C90.4991 65.6035 94.0733 59.1289 98.7022 53.7969C103.39 48.4648 108.985 44.3633 115.489 41.4922C121.993 38.6211 129.259 37.1855 137.286 37.1855C147.95 37.1855 156.944 39.1191 164.269 42.9863C171.651 46.8535 177.364 52.1855 181.407 58.9824C185.509 65.7793 187.97 73.5137 188.79 82.1855H162.423C162.13 77.0293 161.105 72.6641 159.347 69.0898C157.589 65.457 154.923 62.7324 151.349 60.916C147.833 59.041 143.146 58.1035 137.286 58.1035C132.892 58.1035 129.054 58.9238 125.773 60.5645C122.491 62.2051 119.737 64.6953 117.511 68.0352C115.284 71.375 113.614 75.5938 112.501 80.6914C111.446 85.7305 110.919 91.6484 110.919 98.4453V107.498C110.919 114.119 111.417 119.949 112.413 124.988C113.409 129.969 114.933 134.188 116.983 137.645C119.093 141.043 121.788 143.621 125.069 145.379C128.409 147.078 132.423 147.928 137.11 147.928C142.618 147.928 147.159 147.049 150.733 145.291C154.308 143.533 157.032 140.926 158.907 137.469C160.841 134.012 161.983 129.705 162.335 124.549Z" fill="white" fill-opacity="0.2"/>
<path d="M63.4581 39.0312H66.4581V36.0312H63.4581V39.0312ZM63.4581 167V170H66.4581V167H63.4581ZM37.1788 167H34.1788V170H37.1788V167ZM37.1788 39.0312V36.0312H34.1788V39.0312H37.1788ZM60.4581 39.0312V167H66.4581V39.0312H60.4581ZM63.4581 164H37.1788V170H63.4581V164ZM40.1788 167V39.0312H34.1788V167H40.1788ZM37.1788 42.0312H63.4581V36.0312H37.1788V42.0312ZM162.335 124.549V121.549H159.533L159.342 124.345L162.335 124.549ZM188.614 124.549L191.609 124.732L191.804 121.549H188.614V124.549ZM181.495 147.488L178.959 145.886L178.954 145.894L178.949 145.902L181.495 147.488ZM164.005 163.133L162.663 160.45L162.655 160.454L164.005 163.133ZM115.05 164.539L113.838 167.284L113.849 167.288L113.859 167.293L115.05 164.539ZM98.3506 152.234L96.0729 154.187L96.079 154.194L96.0852 154.201L98.3506 152.234ZM87.9796 73.2207L85.1313 72.2786L85.1269 72.2919L87.9796 73.2207ZM98.7022 53.7969L96.4491 51.8161L96.4429 51.8231L96.4368 51.8302L98.7022 53.7969ZM164.269 42.9863L162.868 45.6393L162.877 45.6438L164.269 42.9863ZM181.407 58.9824L178.829 60.5161L178.834 60.5243L178.839 60.5324L181.407 58.9824ZM188.79 82.1855V85.1855H192.087L191.777 81.903L188.79 82.1855ZM162.423 82.1855L159.428 82.3557L159.589 85.1855H162.423V82.1855ZM159.347 69.0898L156.646 70.3965L156.65 70.4052L156.655 70.4138L159.347 69.0898ZM151.349 60.916L149.937 63.5631L149.963 63.577L149.99 63.5905L151.349 60.916ZM112.501 80.6914L109.57 80.0513L109.567 80.0641L109.565 80.0768L112.501 80.6914ZM112.413 124.988L109.47 125.57L109.471 125.577L112.413 124.988ZM116.983 137.645L114.403 139.175L114.419 139.201L114.435 139.227L116.983 137.645ZM125.069 145.379L123.653 148.023L123.681 148.038L123.709 148.053L125.069 145.379ZM158.907 137.469L156.289 136.004L156.279 136.021L156.27 136.038L158.907 137.469ZM162.335 127.549H188.614V121.549H162.335V127.549ZM185.62 124.365C185.121 132.523 182.883 139.672 178.959 145.886L184.032 149.09C188.544 141.945 191.053 133.802 191.609 124.732L185.62 124.365ZM178.949 145.902C175.101 152.081 169.702 156.93 162.663 160.45L165.347 165.816C173.308 161.835 179.569 156.255 184.042 149.074L178.949 145.902ZM162.655 160.454C155.726 163.945 147.248 165.758 137.11 165.758V171.758C147.949 171.758 157.401 169.82 165.355 165.812L162.655 160.454ZM137.11 165.758C129.253 165.758 122.314 164.412 116.241 161.785L113.859 167.293C120.794 170.291 128.562 171.758 137.11 171.758V165.758ZM116.261 161.795C110.159 159.101 104.953 155.264 100.616 150.268L96.0852 154.201C101.006 159.869 106.933 164.235 113.838 167.284L116.261 161.795ZM100.628 150.282C96.3517 145.292 93.047 139.214 90.7507 131.99L85.0326 133.807C87.5411 141.7 91.209 148.512 96.0729 154.187L100.628 150.282ZM90.7507 131.99C88.457 124.773 87.2881 116.619 87.2881 107.498H81.2881C81.2881 117.127 82.5217 125.907 85.0326 133.807L90.7507 131.99ZM87.2881 107.498V98.6211H81.2881V107.498H87.2881ZM87.2881 98.6211C87.2881 89.5064 88.4846 81.3599 90.8322 74.1495L85.1269 72.2919C82.5527 80.1987 81.2881 88.9858 81.2881 98.6211H87.2881ZM90.8278 74.1628C93.2396 66.8713 96.6319 60.7579 100.968 55.7636L96.4368 51.8302C91.5147 57.5 87.7586 64.3358 85.1313 72.2786L90.8278 74.1628ZM100.955 55.7776C105.355 50.7733 110.595 46.9321 116.701 44.2367L114.278 38.7477C107.376 41.7945 101.425 46.1564 96.4491 51.8161L100.955 55.7776ZM116.701 44.2367C122.777 41.5545 129.622 40.1855 137.286 40.1855V34.1855C128.895 34.1855 121.21 35.6876 114.278 38.7477L116.701 44.2367ZM137.286 40.1855C147.598 40.1855 156.082 42.0561 162.868 45.6392L165.669 40.3334C157.807 36.1821 148.302 34.1855 137.286 34.1855V40.1855ZM162.877 45.6438C169.795 49.2679 175.085 54.2226 178.829 60.5161L183.986 57.4488C179.643 50.1485 173.508 44.4391 165.661 40.3288L162.877 45.6438ZM178.839 60.5324C182.686 66.9073 185.021 74.2005 185.803 82.4681L191.777 81.903C190.918 72.8268 188.332 64.6513 183.976 57.4324L178.839 60.5324ZM188.79 79.1855H162.423V85.1855H188.79V79.1855ZM165.418 82.0154C165.109 76.5717 164.018 71.7903 162.039 67.7659L156.655 70.4138C158.191 73.5379 159.151 77.4869 159.428 82.3557L165.418 82.0154ZM162.047 67.7832C160.006 63.5643 156.871 60.3572 152.708 58.2416L149.99 63.5905C152.975 65.1077 155.172 67.3498 156.646 70.3965L162.047 67.7832ZM152.76 58.269C148.654 56.0787 143.423 55.1035 137.286 55.1035V61.1035C142.868 61.1035 147.012 62.0033 149.937 63.5631L152.76 58.269ZM137.286 55.1035C132.517 55.1035 128.203 55.995 124.431 57.8812L127.114 63.2477C129.904 61.8527 133.266 61.1035 137.286 61.1035V55.1035ZM124.431 57.8812C120.639 59.7769 117.503 62.6389 115.015 66.3711L120.007 69.6993C121.972 66.7518 124.343 64.6333 127.114 63.2477L124.431 57.8812ZM115.015 66.3711C112.529 70.1 110.74 74.6924 109.57 80.0513L115.432 81.3315C116.488 76.4951 118.04 72.65 120.007 69.6993L115.015 66.3711ZM109.565 80.0768C108.457 85.3704 107.919 91.5033 107.919 98.4453H113.919C113.919 91.7935 114.436 86.0906 115.437 81.306L109.565 80.0768ZM107.919 98.4453V107.498H113.919V98.4453H107.919ZM107.919 107.498C107.919 114.262 108.427 120.294 109.47 125.57L115.356 124.407C114.407 119.605 113.919 113.977 113.919 107.498H107.919ZM109.471 125.577C110.517 130.806 112.141 135.361 114.403 139.175L119.564 136.114C117.724 133.014 116.301 129.132 115.355 124.4L109.471 125.577ZM114.435 139.227C116.8 143.038 119.873 145.998 123.653 148.023L126.486 142.734C123.703 141.244 121.385 139.048 119.532 136.062L114.435 139.227ZM123.709 148.053C127.563 150.013 132.066 150.928 137.11 150.928V144.928C132.78 144.928 129.256 144.143 126.43 142.705L123.709 148.053ZM137.11 150.928C142.912 150.928 147.945 150.006 152.057 147.983L149.41 142.599C146.374 144.092 142.325 144.928 137.11 144.928V150.928ZM152.057 147.983C156.182 145.955 159.369 142.91 161.544 138.899L156.27 136.038C154.696 138.942 152.433 141.112 149.41 142.599L152.057 147.983ZM161.526 138.933C163.731 134.99 164.955 130.222 165.328 124.753L159.342 124.345C159.012 129.188 157.951 133.034 156.289 136.004L161.526 138.933Z" fill="white"/>
<path d="M15.6445 199.688V196.688H11.371L12.823 200.707L15.6445 199.688ZM30.5273 199.688L33.359 198.697L32.6561 196.688H30.5273V199.688ZM52.4414 262.324L49.6097 263.315L52.4414 271.409L55.2731 263.315L52.4414 262.324ZM74.3555 199.688V196.688H72.2267L71.5238 198.697L74.3555 199.688ZM89.2383 199.688L92.0598 200.707L93.5118 196.688H89.2383V199.688ZM58.418 285V288H60.5239L61.2395 286.019L58.418 285ZM46.4648 285L43.6433 286.019L44.3589 288H46.4648V285ZM7.61719 199.688V196.688H4.61719V199.688H7.61719ZM22.4414 199.688L25.4385 199.555L25.3119 196.688H22.4414V199.688ZM25.1367 260.742H28.1367V260.676L28.1338 260.61L25.1367 260.742ZM25.1367 285V288H28.1367V285H25.1367ZM7.61719 285H4.61719V288H7.61719V285ZM82.4414 199.688V196.688H79.5709L79.4443 199.555L82.4414 199.688ZM97.3242 199.688H100.324V196.688H97.3242V199.688ZM97.3242 285V288H100.324V285H97.3242ZM79.7461 285H76.7461V288H79.7461V285ZM79.7461 260.742L76.749 260.61L76.7461 260.676V260.742H79.7461ZM15.6445 202.688H30.5273V196.688H15.6445V202.688ZM27.6956 200.678L49.6097 263.315L55.2731 261.334L33.359 198.697L27.6956 200.678ZM55.2731 263.315L77.1872 200.678L71.5238 198.697L49.6097 261.334L55.2731 263.315ZM74.3555 202.688H89.2383V196.688H74.3555V202.688ZM86.4168 198.668L55.5964 283.981L61.2395 286.019L92.0598 200.707L86.4168 198.668ZM58.418 282H46.4648V288H58.418V282ZM49.2864 283.981L18.4661 198.668L12.823 200.707L43.6433 286.019L49.2864 283.981ZM7.61719 202.688H22.4414V196.688H7.61719V202.688ZM19.4443 199.82L22.1396 260.874L28.1338 260.61L25.4385 199.555L19.4443 199.82ZM22.1367 260.742V285H28.1367V260.742H22.1367ZM25.1367 282H7.61719V288H25.1367V282ZM10.6172 285V199.688H4.61719V285H10.6172ZM82.4414 202.688H97.3242V196.688H82.4414V202.688ZM94.3242 199.688V285H100.324V199.688H94.3242ZM97.3242 282H79.7461V288H97.3242V282ZM82.7461 285V260.742H76.7461V285H82.7461ZM82.7432 260.874L85.4385 199.82L79.4443 199.555L76.749 260.61L82.7432 260.874ZM148.477 214.277L151.327 215.213L151.421 214.925L151.456 214.624L148.477 214.277ZM125.273 285V288H127.447L128.124 285.935L125.273 285ZM106.582 285L103.77 283.955L102.267 288H106.582V285ZM138.281 199.688V196.688H136.196L135.469 198.643L138.281 199.688ZM150.176 199.688L153.156 200.035L153.545 196.688H150.176V199.688ZM167.754 285L164.904 285.937L165.583 288H167.754V285ZM144.492 214.277L141.517 214.66L141.553 214.943L141.642 215.215L144.492 214.277ZM142.617 199.688V196.688H139.207L139.642 200.07L142.617 199.688ZM154.629 199.688L157.439 198.638L156.711 196.688H154.629V199.688ZM186.504 285V288H190.827L189.314 283.95L186.504 285ZM166.699 253.242H169.699V250.242H166.699V253.242ZM166.699 267.012V270.012H169.699V267.012H166.699ZM121.641 267.012H118.641V270.012H121.641V267.012ZM121.641 253.242V250.242H118.641V253.242H121.641ZM145.626 213.342L122.423 284.065L128.124 285.935L151.327 215.213L145.626 213.342ZM125.273 282H106.582V288H125.273V282ZM109.394 286.045L141.093 200.732L135.469 198.643L103.77 283.955L109.394 286.045ZM138.281 202.688H150.176V196.688H138.281V202.688ZM147.196 199.34L145.497 213.93L151.456 214.624L153.156 200.035L147.196 199.34ZM170.604 284.063L147.342 213.34L141.642 215.215L164.904 285.937L170.604 284.063ZM147.468 213.895L145.593 199.305L139.642 200.07L141.517 214.66L147.468 213.895ZM142.617 202.688H154.629V196.688H142.617V202.688ZM151.819 200.737L183.694 286.05L189.314 283.95L157.439 198.638L151.819 200.737ZM186.504 282H167.754V288H186.504V282ZM163.699 253.242V267.012H169.699V253.242H163.699ZM166.699 264.012H121.641V270.012H166.699V264.012ZM124.641 267.012V253.242H118.641V267.012H124.641ZM121.641 256.242H166.699V250.242H121.641V256.242ZM242.812 256.699V253.699H240.01L239.819 256.495L242.812 256.699ZM260.332 256.699L263.326 256.883L263.521 253.699H260.332V256.699ZM255.586 271.992L253.049 270.39L253.044 270.398L253.039 270.406L255.586 271.992ZM243.926 282.422L242.584 279.739L242.576 279.743L243.926 282.422ZM211.289 283.359L210.078 286.104L210.088 286.108L210.098 286.113L211.289 283.359ZM200.156 275.156L197.878 277.109L197.885 277.116L197.891 277.123L200.156 275.156ZM193.242 222.48L190.394 221.538L190.39 221.552L193.242 222.48ZM200.391 209.531L198.138 207.55L198.131 207.558L198.125 207.565L200.391 209.531ZM244.102 202.324L242.701 204.977L242.71 204.982L244.102 202.324ZM255.527 212.988L252.949 214.522L252.954 214.53L252.959 214.538L255.527 212.988ZM260.449 228.457V231.457H263.746L263.436 228.175L260.449 228.457ZM242.871 228.457L239.876 228.627L240.037 231.457H242.871V228.457ZM240.82 219.727L238.12 221.033L238.124 221.042L238.128 221.051L240.82 219.727ZM235.488 214.277L234.077 216.924L234.103 216.938L234.129 216.952L235.488 214.277ZM218.438 214.043L219.779 216.726L218.438 214.043ZM209.59 227.461L206.659 226.821L206.656 226.834L206.653 226.846L209.59 227.461ZM209.531 256.992L206.588 257.574L206.59 257.581L209.531 256.992ZM212.578 265.43L209.998 266.96L210.013 266.986L210.029 267.012L212.578 265.43ZM217.969 270.586L216.552 273.23L216.58 273.245L216.608 273.26L217.969 270.586ZM240.527 265.312L237.909 263.848L237.9 263.865L237.89 263.882L240.527 265.312ZM242.812 259.699H260.332V253.699H242.812V259.699ZM257.338 256.516C257.014 261.802 255.568 266.403 253.049 270.39L258.122 273.594C261.229 268.676 262.947 263.081 263.326 256.883L257.338 256.516ZM253.039 270.406C250.578 274.358 247.123 277.469 242.584 279.739L245.267 285.105C250.729 282.374 255.047 278.532 258.132 273.578L253.039 270.406ZM242.576 279.743C238.128 281.984 232.638 283.172 225.996 283.172V289.172C233.339 289.172 239.802 287.859 245.276 285.101L242.576 279.743ZM225.996 283.172C220.873 283.172 216.385 282.295 212.48 280.606L210.098 286.113C214.865 288.174 220.182 289.172 225.996 289.172V283.172ZM212.501 280.615C208.566 278.878 205.216 276.408 202.422 273.19L197.891 277.123C201.269 281.014 205.34 284.013 210.078 286.104L212.501 280.615ZM202.434 273.204C199.681 269.992 197.538 266.062 196.043 261.357L190.325 263.174C192.032 268.547 194.538 273.211 197.878 277.109L202.434 273.204ZM196.043 261.357C194.55 256.66 193.781 251.328 193.781 245.332H187.781C187.781 251.836 188.614 257.794 190.325 263.174L196.043 261.357ZM193.781 245.332V239.414H187.781V245.332H193.781ZM193.781 239.414C193.781 233.424 194.568 228.1 196.095 223.409L190.39 221.552C188.636 226.939 187.781 232.904 187.781 239.414H193.781ZM196.09 223.423C197.662 218.67 199.863 214.715 202.656 211.498L198.125 207.565C194.746 211.457 192.181 216.135 190.394 221.538L196.09 223.423ZM202.644 211.512C205.481 208.285 208.856 205.811 212.794 204.073L210.371 198.584C205.637 200.673 201.551 203.668 198.138 207.55L202.644 211.512ZM212.794 204.073C216.701 202.348 221.125 201.457 226.113 201.457V195.457C220.398 195.457 215.134 196.481 210.371 198.584L212.794 204.073ZM226.113 201.457C232.871 201.457 238.356 202.683 242.701 204.977L245.502 199.671C240.081 196.809 233.574 195.457 226.113 195.457V201.457ZM242.71 204.982C247.167 207.317 250.553 210.494 252.949 214.522L258.106 211.455C255.111 206.42 250.88 202.488 245.494 199.667L242.71 204.982ZM252.959 214.538C255.438 218.647 256.954 223.363 257.463 228.74L263.436 228.175C262.851 221.989 261.085 216.392 258.096 211.438L252.959 214.538ZM260.449 225.457H242.871V231.457H260.449V225.457ZM245.866 228.287C245.655 224.562 244.906 221.236 243.512 218.403L238.128 221.051C239.079 222.983 239.697 225.477 239.876 228.627L245.866 228.287ZM243.521 218.42C242.065 215.412 239.819 213.113 236.847 211.603L234.129 216.952C235.923 217.864 237.232 219.197 238.12 221.033L243.521 218.42ZM236.9 211.63C233.965 210.065 230.297 209.402 226.113 209.402V215.402C229.742 215.402 232.324 215.99 234.077 216.924L236.9 211.63ZM226.113 209.402C222.809 209.402 219.775 210.02 217.096 211.36L219.779 216.726C221.475 215.878 223.558 215.402 226.113 215.402V209.402ZM217.096 211.36C214.398 212.709 212.179 214.74 210.434 217.359L215.426 220.688C216.649 218.853 218.102 217.565 219.779 216.726L217.096 211.36ZM210.434 217.359C208.69 219.975 207.458 223.161 206.659 226.821L212.521 228.101C213.206 224.964 214.201 222.525 215.426 220.688L210.434 217.359ZM206.653 226.846C205.897 230.46 205.535 234.621 205.535 239.297H211.535C211.535 234.911 211.876 231.18 212.526 228.076L206.653 226.846ZM205.535 239.297V245.332H211.535V239.297H205.535ZM205.535 245.332C205.535 249.889 205.877 253.977 206.588 257.574L212.474 256.41C211.857 253.288 211.535 249.604 211.535 245.332H205.535ZM206.59 257.581C207.303 261.149 208.419 264.299 209.998 266.96L215.158 263.899C214.003 261.951 213.087 259.476 212.473 256.404L206.59 257.581ZM210.029 267.012C211.692 269.69 213.866 271.791 216.552 273.23L219.385 267.941C217.697 267.037 216.277 265.7 215.127 263.848L210.029 267.012ZM216.608 273.26C219.349 274.654 222.514 275.285 225.996 275.285V269.285C223.228 269.285 221.042 268.783 219.329 267.912L216.608 273.26ZM225.996 275.285C229.961 275.285 233.481 274.656 236.402 273.219L233.754 267.835C231.91 268.742 229.375 269.285 225.996 269.285V275.285ZM236.402 273.219C239.335 271.777 241.614 269.601 243.164 266.743L237.89 263.882C236.941 265.633 235.587 266.934 233.754 267.835L236.402 273.219ZM243.146 266.777C244.707 263.986 245.55 260.654 245.806 256.903L239.819 256.495C239.606 259.619 238.926 262.03 237.909 263.848L243.146 266.777ZM329.121 271.289H332.121V268.289H329.121V271.289ZM329.121 285V288H332.121V285H329.121ZM283.711 285H280.711V288H283.711V285ZM283.711 271.289V268.289H280.711V271.289H283.711ZM289.453 199.688H292.453V196.688H289.453V199.688ZM289.453 285V288H292.453V285H289.453ZM271.875 285H268.875V288H271.875V285ZM271.875 199.688V196.688H268.875V199.688H271.875ZM323.203 234.434H326.203V231.434H323.203V234.434ZM323.203 247.793V250.793H326.203V247.793H323.203ZM283.711 247.793H280.711V250.793H283.711V247.793ZM283.711 234.434V231.434H280.711V234.434H283.711ZM329.062 199.688H332.062V196.688H329.062V199.688ZM329.062 213.457V216.457H332.062V213.457H329.062ZM283.711 213.457H280.711V216.457H283.711V213.457ZM283.711 199.688V196.688H280.711V199.688H283.711ZM326.121 271.289V285H332.121V271.289H326.121ZM329.121 282H283.711V288H329.121V282ZM286.711 285V271.289H280.711V285H286.711ZM283.711 274.289H329.121V268.289H283.711V274.289ZM286.453 199.688V285H292.453V199.688H286.453ZM289.453 282H271.875V288H289.453V282ZM274.875 285V199.688H268.875V285H274.875ZM271.875 202.688H289.453V196.688H271.875V202.688ZM320.203 234.434V247.793H326.203V234.434H320.203ZM323.203 244.793H283.711V250.793H323.203V244.793ZM286.711 247.793V234.434H280.711V247.793H286.711ZM283.711 237.434H323.203V231.434H283.711V237.434ZM326.062 199.688V213.457H332.062V199.688H326.062ZM329.062 210.457H283.711V216.457H329.062V210.457ZM286.711 213.457V199.688H280.711V213.457H286.711ZM283.711 202.688H329.062V196.688H283.711V202.688Z" fill="white"/>
<path d="M255.433 135.714C255.342 138.038 255 140.328 254.408 142.584C253.815 144.84 252.915 146.879 251.708 148.702C250.523 150.525 249.008 151.983 247.162 153.077C245.316 154.171 243.083 154.718 240.463 154.718C238.981 154.718 237.648 154.456 236.464 153.932C235.279 153.408 234.276 152.667 233.456 151.71C232.635 150.73 232.032 149.557 231.644 148.189C231.257 146.822 231.12 145.284 231.234 143.575L232.977 123.888H239.813L238.104 143.575C237.967 144.76 237.979 145.729 238.138 146.48C238.321 147.232 238.594 147.813 238.959 148.224C239.346 148.634 239.779 148.93 240.258 149.112C240.759 149.272 241.249 149.352 241.727 149.352C242.821 149.352 243.824 149.01 244.735 148.326C245.647 147.643 246.433 146.697 247.093 145.489C247.754 144.282 248.278 142.869 248.666 141.251C249.053 139.61 249.27 137.844 249.315 135.953C249.475 132.923 249.327 130.12 248.871 127.545C248.438 124.97 247.686 122.669 246.615 120.641C245.567 118.59 244.2 116.858 242.513 115.445C240.827 114.01 238.822 112.916 236.498 112.164C234.174 111.389 231.519 111.002 228.534 111.002C225.731 111.002 223.145 111.435 220.775 112.301C218.428 113.167 216.32 114.409 214.452 116.026C212.606 117.644 211.011 119.581 209.667 121.837C208.345 124.07 207.297 126.565 206.522 129.322C205.77 132.057 205.326 134.996 205.189 138.141C205.03 141.445 205.201 144.452 205.702 147.164C206.226 149.876 207.058 152.257 208.197 154.308C209.359 156.381 210.806 158.113 212.538 159.503C214.27 160.893 216.286 161.941 218.588 162.647C220.889 163.354 223.452 163.707 226.278 163.707C228.26 163.707 230.277 163.479 232.328 163.023C234.401 162.59 236.145 162.032 237.557 161.349L238.856 166.441C237.261 167.467 235.267 168.23 232.875 168.731C230.505 169.233 228.26 169.483 226.141 169.483C222.518 169.483 219.214 169.039 216.229 168.15C213.267 167.285 210.647 165.986 208.368 164.254C206.089 162.545 204.187 160.426 202.66 157.896C201.156 155.367 200.039 152.451 199.31 149.146C198.604 145.842 198.33 142.174 198.49 138.141C198.649 134.404 199.23 130.883 200.233 127.579C201.236 124.275 202.603 121.279 204.335 118.59C206.066 115.901 208.14 113.588 210.555 111.651C212.994 109.692 215.728 108.188 218.758 107.14C221.789 106.091 225.093 105.567 228.671 105.567C232.225 105.567 235.45 106.035 238.343 106.969C241.26 107.903 243.812 109.247 246 111.002C248.187 112.734 250.01 114.841 251.468 117.325C252.927 119.786 253.986 122.566 254.647 125.665C255.308 128.764 255.57 132.114 255.433 135.714ZM220.912 139.303C220.798 140.807 220.809 142.14 220.946 143.302C221.083 144.464 221.345 145.444 221.732 146.241C222.119 147.039 222.621 147.643 223.236 148.053C223.874 148.44 224.626 148.634 225.492 148.634C225.97 148.634 226.494 148.52 227.064 148.292C227.634 148.041 228.215 147.631 228.807 147.062C229.4 146.492 229.958 145.706 230.482 144.703C231.029 143.678 231.485 142.39 231.849 140.841L234.755 144.293C234.23 146.002 233.581 147.506 232.806 148.805C232.032 150.081 231.143 151.152 230.14 152.018C229.161 152.883 228.09 153.533 226.927 153.966C225.765 154.399 224.512 154.615 223.168 154.615C221.504 154.615 220.023 154.262 218.724 153.556C217.425 152.826 216.343 151.79 215.477 150.445C214.611 149.101 213.985 147.494 213.597 145.626C213.233 143.735 213.164 141.627 213.392 139.303C213.643 136.979 214.099 134.825 214.759 132.843C215.42 130.86 216.241 129.094 217.22 127.545C218.2 125.973 219.317 124.64 220.57 123.546C221.846 122.429 223.225 121.586 224.706 121.017C226.187 120.447 227.736 120.162 229.354 120.162C231.975 120.162 234.037 120.538 235.541 121.29C237.045 122.042 238.469 122.908 239.813 123.888L236.327 128.57C235.666 127.978 234.8 127.408 233.729 126.861C232.681 126.292 231.428 126.007 229.969 126.007C228.625 126.007 227.44 126.292 226.415 126.861C225.412 127.431 224.535 128.285 223.783 129.425C223.054 130.541 222.45 131.931 221.971 133.595C221.493 135.235 221.14 137.138 220.912 139.303Z" fill="white"/>
</svg>
