<svg width="322" height="231" viewBox="0 0 322 231" fill="none" xmlns="http://www.w3.org/2000/svg">
<path d="M64.6607 7.35938V4.85938H62.1607H40.2613H37.7613V7.35938V114V116.5H40.2613H62.1607H64.6607V114V7.35938ZM154.308 76.124H151.973L151.814 78.454C151.539 82.4898 150.654 85.6948 149.27 88.1702L149.262 88.1844L149.254 88.1987C147.942 90.618 146.057 92.4265 143.537 93.6658C141.007 94.91 137.633 95.6064 133.288 95.6064C129.691 95.6064 126.762 94.9567 124.411 93.7662C122.109 92.5277 120.189 90.7088 118.653 88.2401C117.127 85.6607 115.945 82.4338 115.159 78.5028C114.368 74.5019 113.962 69.8127 113.962 64.415V56.8711C113.962 51.3331 114.392 46.5843 115.225 42.5994C116.105 38.5739 117.397 35.3729 119.035 32.916C120.672 30.4598 122.648 28.6944 124.957 27.5398C127.283 26.3772 130.084 25.7529 133.434 25.7529C138.086 25.7529 141.539 26.5028 143.976 27.8026L143.998 27.8142L144.02 27.8254C146.508 29.0897 148.339 30.9581 149.568 33.4971L149.571 33.5043L149.575 33.5115C150.855 36.1149 151.655 39.4057 151.885 43.4631L152.019 45.8213H154.381H176.354H179.102L178.843 43.0859C178.128 35.5251 175.974 28.7144 172.346 22.7002C168.728 16.6212 163.618 11.8664 157.083 8.4426C150.532 4.98451 142.612 3.32129 133.434 3.32129C126.442 3.32129 120.037 4.57304 114.261 7.12309C108.509 9.66206 103.55 13.297 99.4033 18.0134L99.3981 18.0193L99.393 18.0252C95.2913 22.75 92.1612 28.4465 89.9718 35.0655L89.9681 35.0766C87.8229 41.6656 86.7691 48.9881 86.7691 57.0176V64.415C86.7691 72.439 87.7971 79.7557 89.8895 86.3393C91.9799 92.9163 95.0365 98.5935 99.0898 103.322L99.0949 103.328L99.1 103.334C103.201 108.058 108.14 111.696 113.894 114.236L113.903 114.24L113.912 114.244C119.69 116.743 126.164 117.965 133.288 117.965C142.319 117.965 150.194 116.351 156.822 113.011C163.452 109.696 168.667 105.048 172.393 99.0689C176.151 93.1161 178.24 86.332 178.703 78.7768L178.865 76.124H176.208H154.308Z" stroke="white" stroke-width="5"/>
<path d="M247.581 114.511C250.189 113.964 252.486 113.107 254.399 111.878L255.915 110.903L255.469 109.157L254.171 104.064L253.414 101.098L250.659 102.432C249.481 103.001 247.946 103.505 246.008 103.91L245.992 103.913L245.976 103.916C244.093 104.335 242.258 104.54 240.469 104.54C237.85 104.54 235.539 104.213 233.512 103.591C231.487 102.969 229.758 102.062 228.293 100.887C226.83 99.712 225.587 98.2347 224.571 96.4229C223.583 94.6428 222.831 92.5238 222.349 90.0329C221.89 87.5465 221.725 84.7387 221.877 81.5945L221.877 81.5945L221.878 81.5825C222.007 78.6078 222.426 75.8582 223.122 73.3251C223.843 70.7599 224.809 68.472 226.007 66.4468C227.225 64.404 228.653 62.6765 230.285 61.2447C231.92 59.8296 233.763 58.743 235.827 57.981C237.892 57.2269 240.184 56.8353 242.725 56.8353C245.498 56.8353 247.877 57.1955 249.898 57.8691L249.908 57.8726L249.919 57.876C251.963 58.5374 253.672 59.4802 255.083 60.6822L255.091 60.6886L255.099 60.6949C256.516 61.8823 257.677 63.3451 258.58 65.1117L258.587 65.1266L258.595 65.1414C259.526 66.9035 260.201 68.945 260.596 71.2928L260.598 71.3034L260.6 71.3139C261.018 73.6747 261.16 76.2846 261.009 79.155L261.007 79.1906L261.007 79.2262C260.965 80.9633 260.767 82.5539 260.424 84.0058C260.078 85.4496 259.626 86.6456 259.091 87.6225C258.567 88.5812 257.999 89.2299 257.426 89.6595C256.928 90.033 256.447 90.1849 255.918 90.1849C255.741 90.1849 255.533 90.1586 255.289 90.0883C255.212 90.0522 255.118 89.9914 255.006 89.8809C254.992 89.8609 254.966 89.8198 254.933 89.749C254.883 89.644 254.824 89.4865 254.768 89.2623C254.692 88.8741 254.661 88.2133 254.778 87.1951L254.783 87.1599L254.786 87.1247L256.495 67.4372L256.617 66.0316L255.476 65.2006C254.019 64.1384 252.476 63.2005 250.849 62.3873C248.858 61.3915 246.358 60.9954 243.545 60.9954C241.626 60.9954 239.772 61.3346 237.999 62.0166C236.226 62.6985 234.597 63.7005 233.116 64.9967C231.659 66.2683 230.388 67.794 229.294 69.5489C228.194 71.2893 227.294 73.2404 226.578 75.3855C225.855 77.5562 225.365 79.8867 225.097 82.368L225.096 82.3801L225.095 82.3921C224.848 84.9068 224.915 87.2612 225.333 89.4325L225.337 89.4497L225.34 89.4668C225.778 91.5794 226.505 93.4849 227.566 95.1323C228.636 96.7937 230.011 98.1255 231.691 99.0689L231.706 99.0772L231.721 99.0852C233.43 100.015 235.331 100.449 237.358 100.449C238.976 100.449 240.527 100.187 241.991 99.6418C243.451 99.0977 244.781 98.2871 245.976 97.2339C246.028 97.1883 246.081 97.1422 246.133 97.0958C247.127 98.1392 248.304 98.959 249.643 99.5513C251.189 100.235 252.874 100.551 254.653 100.551C257.623 100.551 260.318 99.9293 262.627 98.5612C264.805 97.2706 266.598 95.5439 267.988 93.4073C269.354 91.3433 270.36 89.0521 271.017 86.5523C271.655 84.1214 272.024 81.6513 272.122 79.1451L272.122 79.142C272.266 75.3627 271.992 71.8038 271.283 68.477C270.572 65.1429 269.422 62.1054 267.813 59.3885C266.204 56.6508 264.182 54.3081 261.748 52.38C259.303 50.4202 256.477 48.9401 253.299 47.9221C250.12 46.8961 246.633 46.4007 242.861 46.4007C239.038 46.4007 235.454 46.9613 232.132 48.1103C228.837 49.2498 225.849 50.8914 223.181 53.0352C220.549 55.146 218.296 57.662 216.424 60.5695C214.557 63.4679 213.096 66.6783 212.032 70.1865C210.963 73.7077 210.351 77.4376 210.183 81.3673L210.183 81.3751C210.016 85.5778 210.299 89.4593 211.056 93.0025L211.058 93.0105L211.06 93.0186C211.838 96.5446 213.043 99.7176 214.702 102.507L214.706 102.515L214.71 102.522C216.395 105.313 218.51 107.674 221.052 109.582C223.589 111.509 226.486 112.938 229.713 113.882C232.962 114.848 236.508 115.317 240.332 115.317C242.647 115.317 245.066 115.043 247.581 114.511ZM247.581 114.511C247.58 114.511 247.579 114.511 247.578 114.512L247.065 112.065L247.583 114.511C247.582 114.511 247.582 114.511 247.581 114.511ZM244.249 71.8406L243.034 85.5621C242.853 86.0625 242.663 86.4932 242.467 86.86L242.462 86.8691L242.457 86.8783C242.015 87.725 241.605 88.2659 241.265 88.5928C240.842 88.9995 240.512 89.2141 240.283 89.3213C239.955 89.4475 239.764 89.4671 239.683 89.4671C239.238 89.4671 238.959 89.3788 238.77 89.2758C238.599 89.15 238.385 88.9219 238.172 88.4823C237.939 88.0025 237.733 87.3108 237.62 86.343C237.507 85.3869 237.491 84.2321 237.593 82.8611C237.809 80.8225 238.137 79.0841 238.562 77.628L238.562 77.628L238.565 77.6192C238.993 76.1309 239.505 74.9861 240.063 74.1302C240.634 73.2675 241.232 72.7163 241.83 72.3742C242.431 72.0428 243.184 71.8401 244.16 71.8401C244.19 71.8401 244.22 71.8403 244.249 71.8406Z" stroke="white" stroke-width="5"/>
<path d="M8.47581 150.77H5.34766H2.84766V153.27V224.364V226.864H5.34766H19.9473H22.4473V224.364V204.149V204.094L22.4448 204.039L21.7105 187.404L35.3694 225.213L35.9657 226.864H37.7207H47.6816H49.4366L50.0329 225.213L63.6918 187.404L62.9575 204.039L62.9551 204.094V204.149V224.364V226.864H65.4551H80.1035H82.6035V224.364V153.27V150.77H80.1035H76.9265H73.3652H67.7012H65.3091H60.9629H59.189L58.6031 152.444L42.7012 197.897L26.7992 152.444L26.2134 150.77H24.4395H20.0932H17.7012H12.0371H8.47581ZM129.506 150.77H128.734H126.996L126.391 152.399L99.9749 223.493L98.7224 226.864H102.318H117.895H119.705L120.27 225.143L124.624 211.873H146.555L150.92 225.145L151.485 226.864H153.295H168.92H172.523L171.262 223.489L144.699 152.395L144.092 150.77H142.357H141.455H138.646H132.348H129.506ZM135.575 178.492L141.136 195.399H130.029L135.575 178.492ZM230.344 198.28H228.008L227.85 200.61C227.672 203.213 227.105 205.222 226.258 206.737L226.25 206.751L226.242 206.765C225.451 208.224 224.322 209.309 222.795 210.06C221.258 210.816 219.145 211.268 216.33 211.268C214.036 211.268 212.222 210.854 210.798 210.136C209.407 209.385 208.236 208.282 207.286 206.758C206.329 205.139 205.572 203.085 205.062 200.539C204.548 197.937 204.279 194.867 204.279 191.307V186.278C204.279 182.627 204.563 179.522 205.103 176.937C205.674 174.328 206.502 172.299 207.522 170.77C208.541 169.241 209.752 168.168 211.149 167.469C212.563 166.762 214.298 166.366 216.428 166.366C219.452 166.366 221.603 166.855 223.064 167.634L223.086 167.646L223.108 167.657C224.603 168.417 225.693 169.528 226.433 171.058L226.437 171.065L226.44 171.072C227.232 172.683 227.747 174.761 227.897 177.386L228.031 179.745H230.393H245.041H247.789L247.53 177.009C247.043 171.857 245.572 167.195 243.084 163.069C240.589 158.878 237.066 155.604 232.582 153.254C228.065 150.871 222.644 149.745 216.428 149.745C211.665 149.745 207.279 150.597 203.309 152.35C199.364 154.091 195.959 156.587 193.115 159.822L193.109 159.828L193.104 159.834C190.288 163.078 188.151 166.976 186.662 171.479L186.658 171.49C185.196 175.979 184.484 180.95 184.484 186.375V191.307C184.484 196.727 185.179 201.692 186.604 206.176C188.027 210.653 190.115 214.54 192.899 217.787L192.904 217.793L192.909 217.799C195.724 221.042 199.117 223.541 203.065 225.284L203.073 225.287L203.082 225.291C207.054 227.009 211.485 227.84 216.33 227.84C222.448 227.84 227.832 226.747 232.393 224.45C236.94 222.175 240.536 218.976 243.106 214.852C245.692 210.755 247.123 206.095 247.439 200.932L247.601 198.28H244.943H230.344ZM319.268 212.938V210.438H316.768H286.211V195.858H311.836H314.336V193.358V182.225V179.725H311.836H286.211V167.245H316.719H319.219V164.745V153.27V150.77H316.719H286.211H283.711H278.926H276.426H269.062H266.562V153.27V224.364V226.864H269.062H276.426H278.926H283.711H286.211H316.768H319.268V224.364V212.938Z" stroke="white" stroke-width="5"/>
</svg>
