<svg width="56" height="63" viewBox="0 0 56 63" fill="none" xmlns="http://www.w3.org/2000/svg">
<path d="M28 31.6214C35.9036 31.6214 42.3107 25.2143 42.3107 17.3107C42.3107 9.40711 35.9036 3 28 3C20.0964 3 13.6893 9.40711 13.6893 17.3107C13.6893 25.2143 20.0964 31.6214 28 31.6214Z" stroke="white" stroke-width="5"/>
<path d="M42.3107 37.3456H43.3173C47.6474 37.3456 51.3001 40.5701 51.8373 44.867L52.955 53.8084C53.382 57.2249 50.7179 60.2427 47.2748 60.2427H8.7251C5.28198 60.2427 2.61799 57.2249 3.04505 53.8084L4.16271 44.867C4.69982 40.5701 8.35251 37.3456 12.6828 37.3456H13.6893" stroke="white" stroke-width="5" stroke-linecap="round" stroke-linejoin="round"/>
</svg>
